# Generated by BeeFoundrySim OpenUSD importer
v 0.00235420385701499 -0.00942009547158862 0.0475357664927296
v -2.00268997176126e-06 -0.0128052196024682 0.0449937476591673
v 0.00336742393596268 -0.00942015507623206 0.0457962121263993
v 0.0012096159634825 -0.00942182519834134 0.0482046593381913
v -0.000900073999909892 -0.00942343333162143 0.0483672560371327
v -0.00256878072242184 -0.00941419580398062 0.0472955693163968
v -0.00346106193674217 -0.00942599633128949 0.0454550875994171
v -0.0104053590356106 -0.0183872504892815 0.00396412602147178
v 0.010302779444245 -0.0196752484215368 0.00399994781613466
v -0.010306769379077 -0.019704099453149 0.00399994781613466
v 0.010401600366795 -0.0182121892673033 0.00399756363039694
v -0.0103283498362821 -0.0174108704013183 0.00631153450209943
v 0.0102062795265105 -0.0174418588554444 0.00510972667240217
v -0.010402319198795 -0.0174140294474208 0.00476950396367526
v 0.0103377101494884 -0.017410509197179 0.00634837076779371
v -0.0103496298860841 -0.00256317788593818 0.00179994087368382
v -0.0104643092200687 -0.00807201725083551 0.00174116995019086
v -0.0103662595816048 -0.00252431595643648 0.000133331992477208
v -0.0103380594326989 -0.00802856546576547 0.00383841893438058
v -0.0103538248608896 -0.0104629895732629 0.00391176274616056
v -0.0103790698115735 -0.0127922198297332 0.0188520486909438
v -0.0105009005106784 -0.0170356591708438 0.0177143784378235
v -0.0103749594753617 -0.011576889494578 0.0177727301916615
v -0.0104031500875246 -0.0114449796502669 0.00479894776346651
v -0.0103331801965867 -0.0162147804450665 0.0188274903857524
v -0.0104643092200687 -0.0207543296943382 0.00174116995019086
v -0.0102562294098087 -0.0207977790952225 0.00392025700389764
v -0.010390519863579 -0.0263041204295131 0.000163633000173427
v -0.0103496298860841 -0.026263169655282 0.00179994087368382
v 0.0103553495476689 -0.0104675552889506 0.00390830537881764
v 0.00678396150207605 -0.00787025553278053 0.00392210385377473
v 0.0103387794567917 -0.00802856546576547 0.00383841893438058
v -0.00668823704075283 -0.00782579046877196 0.00391292473868449
v -0.00503319490626764 -0.00596505390185742 0.00387495687883443
v -0.00487458695006548 -0.0025882118361843 0.00387495687883443
v 0.00500184226777012 -0.00613823400128855 0.00384604862676452
v 0.00487536091636059 -0.00253820383835873 0.00382494888100887
v 0.010350340373434 -0.00256317788593818 0.00179994087368382
v 0.00486189056496567 -0.00248241389209597 0.00176149587866301
v 0.0103782997195803 -0.00253522301014014 0.000152541991638944
v -0.0048611157046009 -0.00248241389209597 0.00176149587866301
v 0.0103892002167731 -0.026279858955446 0.000133332998305567
v 0.00490075279249058 -0.0263454884362484 0.00176060091494171
v 0.010350340373434 -0.026263169655282 0.00179999988228083
v -0.00483804870758842 -0.0262977999531224 0.00383841893438058
v 0.00483882356795318 -0.0262516683432832 0.00388461283107222
v -0.00491309095368331 -0.0263150876839067 0.00177884097891656
v -0.00474035669698514 -0.0230867189969111 0.00399154356140918
v 0.00473672081373511 -0.023112709005638 0.003989933938013
v 0.0104090497551326 -0.0116169390466003 0.0177185495707717
v 0.0103977892458933 -0.011406599028261 0.00475180078852622
v 0.0103278694228559 -0.0160561796414216 0.0188734491421256
v 0.0103827092711022 -0.0126119193595964 0.0187998982042097
v 0.0102684996217079 -0.0207631487973821 0.00393175980601251
v 0.0104585192250046 -0.0208025498508837 0.00174504484806109
v 0.0104650197074185 -0.00807201725083551 0.00174116995019086
v 0.0105015597380349 -0.0170357199675801 0.0177144404266527
v 0.0104986403025991 -0.0172322889290983 0.00473028410828968
v 0.00707286461279844 -0.0210059185101259 0.00189995686933495
v 0.0052065246133538 -0.0225413984982357 0.00189995686933495
v 0.00503069091519659 -0.0233486194160144 0.00370061299874008
v 0.00555646407105481 -0.0221340603649454 0.0037001960642592
v 0.00697415991930306 -0.0210205288003267 0.00369894496279333
v 0.00515144992281236 -0.00613880084144769 0.00189995686933495
v 0.00699281557665432 -0.00781291705788112 0.00189995686933495
v -0.0071045158705596 -0.0209913797454973 0.00189995686933495
v -0.00520580995367892 -0.0225413984982357 0.00189995686933495
v -0.00696331187419641 -0.0210297699042461 0.00368881187538478
v -0.00555568861464362 -0.0221340603649454 0.0037001960642592
v -0.00503146577556135 -0.0233402199296604 0.00370299778052424
v -0.00505119491254102 -0.00564485656518809 0.00189995686933495
v -0.00715523882608327 -0.00784361225716146 0.00189995686933495
v -0.00577795492608946 -0.00696319266490952 0.00189995686933495
v 0.0101981697187237 -0.0173339804112767 0.0177703996501029
v -0.0101935801611786 -0.0173503096993943 0.0176808794361156
v -0.00656622573957832 -0.020818709861814 0.00399744501715649
v 0.00660258457207863 -0.0207953400732128 0.00399714699393927
v -0.0102930007064417 -0.023165578324372 0.00400900772193802
v -0.00880229334230065 -0.0156517597514743 0.0359254995899163
v 0.00880372504583615 -0.0156677898242819 0.035909349115729
v -0.0103888497414697 -0.0252202695931434 0.01918761925725
v 0.0104004702627554 -0.0252534097748978 0.0190365882433223
v 0.00874662260532477 -0.0144116195795323 0.0360042993127339
v -0.00874870995993815 -0.0144120391962221 0.0360045973359511
v -0.0053303240538316 -0.014301709809116 0.0538099992168695
v -0.00865679840765599 -0.0144132897016416 0.0498322809525069
v -0.00780171078886738 -0.0142384704745158 0.0522912109131095
v 0.00480043787955259 -0.0143310400620615 0.0538315665610529
v 0.00853770833005663 -0.0144140097257344 0.0505335891872587
v 0.00654661581188554 -0.0142905089045202 0.0532461392898975
v 0.00553220498117346 -0.00941228726329757 0.0538575589539656
v -0.00546771156487513 -0.00949096539264249 0.0537472283747666
v -0.00839465718579313 -0.00950425722813031 0.0514610994280629
v -0.00708413048645562 -0.00950425722813031 0.0528213870639789
v -0.00877934555457505 -0.00946134307694413 0.0501179588559726
v -0.00874519209388214 -0.00941395619331398 0.0360044781266642
v -0.00306206875155712 -0.00942635515124302 0.0434908761793924
v -0.00195377986236409 -0.00941777208258721 0.0421556797141802
v 0.00773781461109635 -0.00953346350341744 0.052245081687456
v 0.00880241255158754 -0.00950848915781477 0.0502025402292041
v 0.000144478992123626 -0.00943315008059553 0.0415105190535519
v 0.00316786699366867 -0.00942504384908727 0.0437722196331869
v 0.00874894718641905 -0.00941377737938365 0.036004716545238
v 0.00194334904976154 -0.00942236044803946 0.0421935262785809
v 0.00896245221132519 -0.00802069884492385 0.0355792586003409
v -0.00901520112867948 -0.00804358702800601 0.0357420388815841
v -0.0101925096617823 -0.0173994799539563 0.0192508097160426
v 0.0101882789241907 -0.0173925097869521 0.0192534299361684
v -0.0103617892333465 -0.0253046697682588 0.00614440367793134
v 0.0103817496363428 -0.0252618092612518 0.00611853466663059
v 0.0102937195384416 -0.023165578324372 0.00400900772193802
v 0.0104797396701632 -0.0176779600006798 0.0193241794558425
v -0.0104790899795497 -0.0176780196053232 0.0193235798331295
v -0.00905543426300359 -0.015467999827832 0.0357080093985496
v -0.00904929617682182 -0.0097116229747618 0.0357345883011537
v -0.0090554950597399 -0.0141045400327919 0.0357282082201196
v -0.00894540409120759 -0.0141099592869738 0.0499603117266227
v 0.00897312025040864 -0.0141132995311923 0.0496811188083637
v 0.00904995182789969 -0.00971585490444626 0.0357357780098368
v 0.00905626992010466 -0.0141087695782907 0.0357270185114364
v 0.00905614951872491 -0.015467999827832 0.0357080093985496
v 0.00819712739742262 -0.0141149100486582 0.051852940354058
v -0.00982320286728733 -0.0175021191499654 0.011107979764611
v -0.00897002200104247 -0.0175354405298358 0.00949793913592534
v -0.00982862688984065 -0.0204132099357275 0.0116144392278543
v -0.00838220100740639 -0.020413159867827 0.00897806743581442
v -0.00524490940768474 -0.020413159867827 0.0157164295975172
v -0.00541889595794165 -0.0177191396567418 0.015752129202661
v -0.00698703452228677 -0.020413159867827 0.0156416198095317
v -0.00758099479419749 -0.0177130099152101 0.0154585191132459
v -0.00790250283697613 -0.0177127691124506 0.00874233226308974
v -0.00893688181928809 -0.0204132099357275 0.0144862493614946
v -0.00616574154423755 -0.0177192588660287 0.00820678334966041
v -0.00599962340296156 -0.020413159867827 0.00820779782069181
v -0.00901007512934338 -0.0177126499031637 0.0142740592150228
v -0.00971245624767714 -0.0177175899360122 0.0127433499825742
v -0.00816380840173792 -0.0174136098307309 0.0154888602609442
v -0.00980520107287464 -0.0174138506334904 0.0135763201063204
v -0.00216013098895257 -0.0177142592285366 0.011790150140446
v -0.00191706384903795 -0.01741540035422 0.0128797194463077
v -0.00276118480947946 -0.0177128883217375 0.0139358600839408
v -0.00345307491452079 -0.0174133702200643 0.015198169606965
v -0.00375634393640584 -0.017713119587754 0.0150334795929459
v -0.00565910267101744 -0.0174139102381339 0.0161122604583444
v -0.00744163854178104 -0.0174135490339946 0.00815576296696596
v -0.00479966391325748 -0.0174142690580874 0.00804436188837077
v -0.00253355497419339 -0.0174140294474208 0.00976121403810648
v -0.00424080988226511 -0.017708119950262 0.00864684443220098
v -0.00298917197460297 -0.0177126499031637 0.00972586729245184
v -0.00306236677477434 -0.020413159867827 0.0144862493614946
v -0.00361704788467926 -0.020413159867827 0.00897806743581442
v -0.00217056195056672 -0.0204132099357275 0.0116144392278543
v 0.00217133681093148 -0.0204132099357275 0.0116144392278543
v 0.00247198293048181 -0.0175376494779218 0.0102740500061054
v 0.00361776284237736 -0.020413159867827 0.00897806743581442
v 0.0067550526539597 -0.020413159867827 0.0157164295975172
v 0.00658100769115222 -0.0177191396567418 0.015752129202661
v 0.00501292873145054 -0.020413159867827 0.0156416198095317
v 0.00441890885489638 -0.0177130099152101 0.0154585191132459
v 0.0040974607147844 -0.0177127691124506 0.00874233226308974
v 0.00306308203049566 -0.020413159867827 0.0144862493614946
v 0.0058342205174069 -0.0177192588660287 0.00820678334966041
v 0.00600033865868288 -0.020413159867827 0.00820779782069181
v 0.00298988782637072 -0.0177126499031637 0.0142740592150228
v 0.00215810487811033 -0.0176027389406546 0.0124818596434177
v 0.00277876788127196 -0.0174147387426777 0.0146438392703867
v 0.00996714808120247 -0.0174139102381339 0.0108637199357811
v 0.00984442212035308 -0.0174136098307309 0.0134419688558138
v 0.00983983137071509 -0.0177142592285366 0.011790150140446
v 0.0092387185415912 -0.0177128883217375 0.0139358600839408
v 0.00836306791686114 -0.0175936790348512 0.0150501700852028
v 0.00593393968193368 -0.0174150391500807 0.0161760386189214
v 0.00849610428893333 -0.0174136694353744 0.00874000648990259
v 0.00416731765492295 -0.0174148603361504 0.00827723723030305
v 0.00659871086630126 -0.0174132486265917 0.00796615940408052
v 0.00775915247740255 -0.017708119950262 0.00864684443220098
v 0.00901079038506469 -0.0177126499031637 0.00972586729245184
v 0.00893759707500941 -0.020413159867827 0.0144862493614946
v 0.0083829162631277 -0.020413159867827 0.00897806743581442
v 0.00982934214556197 -0.0204132099357275 0.0116144392278543
v -0.000860487948496164 -0.00191301088229542 0.0435649719037494
v -0.00174039598389575 -0.00938856580730008 0.0444136180487211
v -0.00152557995485708 -0.00191253389613627 0.0459175099599918
v -0.00129699689231075 -0.00939077117910747 0.0462115992707401
v 0.000156457998086706 -0.00938838699336975 0.046765860465932
v 0.000861215944710017 -0.0019131299425707 0.046434987937622
v -0.000155725000670738 -0.00938838699336975 0.0432340516917247
v -0.00208645979866848 -0.00943106391807502 0.0452687110319276
v -0.00215315784171616 -0.0108865389774768 0.0454203976969332
v -0.00146478396360314 -0.00942921617412829 0.0465516985978551
v -0.00107014094881398 -0.0108835599373975 0.046980966471561
v 0.000721601976716474 -0.00943356612100676 0.0429896726536079
v -0.000723477958363042 -0.0108947691866434 0.0428775491667341
v -0.00069770498504404 -0.00943159916777314 0.0430164279859566
v -1.12074005706444e-05 -0.00943016984842338 0.0471171082455566
v -0.00181931193576801 -0.00943756082421032 0.0438790263858655
v -0.00196719090713879 -0.0108896992156722 0.0440769090337252
v -0.00288659297928379 -0.00943517544637973 0.0439947213829743
v -0.00297522478606049 -0.00943678596384556 0.0457030476845119
v -0.00300937794873019 -0.0108941695639304 0.0452787198436546
v -0.0024552340256743 -0.0108961996980861 0.0432685603960925
v -0.00179171498585384 -0.00943350651636332 0.0475511492591094
v 0.000359714991754703 -0.0108996603436844 0.0479683197743821
v -0.00187092985501297 -0.0109066901153321 0.0474112595451341
v 0.000520979973949939 -0.00943428137672808 0.0480303658240206
v -0.00178468193595077 -0.00943410256279775 0.042496499065388
v -0.000970154979001991 -0.0108849999855831 0.0421676578633265
v 1.48398996273451e-05 -0.00943773844604778 0.041942466752027
v 0.00102555704804755 -0.0108947691866434 0.0421499624367812
v 0.00226306880422528 8.3764296015405e-05 0.0472626580164732
v 0.00484311480425786 1.7061199378717e-05 0.0537171876344713
v 0.00226896996194936 3.64763980028838e-05 0.0537461602595561
v 0.00707507058065227 1.88820991169937e-05 0.0527692401535234
v 0.0086749182192627 6.99963987060696e-06 0.0503185308653444
v 0.00875699500537674 2.97772994128473e-05 0.0472717799111058
v 0.00875890116187406 2.87571985366076e-05 0.0427279367433204
v 0.00227022091440363 3.43831015516124e-05 0.0362487975601375
v 0.0087625978418604 -1.08414990732484e-05 0.0362658492565338
v 0.00224822680097311 7.64218980128639e-05 0.0427520790081006
v -0.00226229394386052 8.3764296015405e-05 0.0472626580164732
v -0.00226825396117 3.64760999796666e-05 0.0537461602595561
v -0.0056919448295546 -1.10341000698335e-05 0.0536039388119294
v -0.00781816226650411 3.973110024487e-05 0.0519177902061241
v -0.00870937089526569 1.03084996832497e-05 0.0499394501014176
v -0.00875771026109806 2.89759988007844e-05 0.0472718991203926
v -0.00875878314468004 3.04483988035828e-05 0.0427238883959378
v -0.00227373788638999 3.68373972511873e-05 0.0362495700363166
v -0.00224399487128865 7.46944995665289e-05 0.0427555980662495
v -0.0087719545787881 -2.75425979299262e-05 0.0362644068241624
v 0.00880932788231981 -0.00156462099631233 0.0449999465420854
v 0.0087859628620901 -0.00934815385904564 0.0505711973330856
v 0.00893133739535501 -0.0093136415783992 0.0360903684178657
v -0.00880402306905337 -0.00155889895054179 0.0449999465420854
v -0.00889307121426453 -0.00934207418541444 0.0498996294312262
v -0.00893068293637 -0.00931441643876396 0.0360903684178657
v 3.65234001059443e-07 -0.00155889895054179 0.0538040292157822
v 3.65209990399852e-07 -0.001488625969992 0.0449999465420854
v 3.6561398793735e-07 -0.00156116407600423 0.0361964098469225
v 0.00473004479564626 -0.0093513713176987 0.0538998782508102
v -0.00533980059609263 -0.00935518720697193 0.0538194692026197
v -0.00270712309985333 -0.00938367822653774 0.0419390192194502
v -0.00394457480435279 -0.00940042713134526 0.0442537583950067
v 0.00749272091330466 -0.00939500310879193 0.0442505969647184
v 0.00749748868873368 -0.00939482310276873 0.0457537068630671
v 0.00218564192535783 -0.00939082959165805 0.0483753002798117
v 0.00254624986917712 -0.00943660714991523 0.0467984570533382
v -0.00725847347248032 -0.00938779094693531 0.0506891620750167
v -0.00786077839447308 -0.00935530522416594 0.0521914279716142
v 0.00749838275838532 -0.00939386942847364 0.0375068703851058
v 0.000754131955933601 -0.00939506152134251 0.0375025788507779
v -0.00497215885731223 -0.00939273813234109 0.0524379003248088
v -0.00075575901368799 -0.0093944070623575 0.0375016275606685
v -0.00749248189868446 -0.00939386942847364 0.0375017467699554
v -0.00749653441839215 -0.00939482310276873 0.0442468490247387
v 0.00344526700425296 -0.00938671806335334 0.0470567883463922
v 0.00686865970040873 -0.00935214617806346 0.0531028497270603
v 0.00736528558957683 -0.00939369180663618 0.0503267610745111
v 0.00534444975828119 -0.00938582399370169 0.0523556983689435
v -0.00749182684365302 -0.00939482310276873 0.0457493581082815
v -0.000753553939903812 -0.00939470508557472 0.0524972570129352
v 0.00392353466324058 -0.0093899355220064 0.0457335700303263
v -0.000730475021962634 -0.00939190247524002 0.0410801067706918
v 0.0030384057081102 -0.00943362691774308 0.0446528090986726
v 0.00074980898015628 -0.00939506152134251 0.0524923789689158
v 0.00392335584931025 -0.00939035394660337 0.0442665805459042
v 0.000734001977726773 -0.0093899355220064 0.041076768910659
v 0.00207763905649694 -0.00943434217346439 0.042675489425462
v 0.00205707500747423 -0.00938671806335334 0.0415549793491889
v 0.00337564878071139 -0.00939082959165805 0.0428146686520874
v -0.000733048973983921 -0.00939035394660337 0.0489230049642249
v -0.00392264059358893 -0.00939035394660337 0.0457333888322102
v -0.00205635990076453 -0.00938671806335334 0.0484449185033533
v -0.00337487392034663 -0.00939082959165805 0.047185300726027
v 0.000734001977726773 -0.0093899355220064 0.0489231909307124
v 0.00733321888745087 -0.00144219305868015 0.037672750107808
v 0.00733107252424048 -0.00144165691491238 0.0440803088825872
v 0.00411546161512744 -0.00143360999002434 0.0440410270383724
v 0.000913616994464017 -0.00144046497105513 0.0409246006401345
v 0.00267535382489814 -0.00142788809326541 0.0417134084914608
v 0.000916391963145316 -0.00144249197596702 0.0376725712938777
v -0.00733286066354377 -0.00144308802240145 0.0376718584223421
v -0.000916097963241533 -0.00144219305868015 0.037672750107808
v -0.000909493992265448 -0.00144207399840487 0.0409266891868407
v -0.00304520093548594 -0.00141972300217175 0.041956538216251
v -0.00407320192292626 -0.00144213405008314 0.0440898503939096
v -0.00733196659389213 -0.00144272994750597 0.0440797795933534
v -0.00714051647915281 -0.00143116694470122 0.0504422701051324
v -0.0050904147679266 -0.00143229898589181 0.0522284496077496
v -0.00733220441641946 -0.00144350495688234 0.0459198321569003
v -0.00411480596404956 -0.00143343192115206 0.0459590520122859
v -0.000913102978920124 -0.00144010704517125 0.0490754784105238
v -0.00267529392223148 -0.00142651703745461 0.0482869089777713
v -0.000916343981407344 -0.00144302797072318 0.0523282182441305
v 0.00660824641715929 -0.00141262990059041 0.0511690891272778
v 0.00730997248046161 -0.00143551793466096 0.0495813978556976
v 0.00492483277041839 -0.00143730607396425 0.0522634876013512
v 0.000915561968485371 -0.00144356396547934 0.0523269689308039
v 0.000959385984553709 -0.00143349092974907 0.0491151226509707
v 0.00407588383385799 -0.00144010704517125 0.0459134473074947
v 0.00328731469912869 -0.00142651703745461 0.0476756609750764
v 0.00733232362570635 -0.00144284900778124 0.0459200705754741
v 0.000984775029463134 -0.0108881494949427 0.0430663194567042
v 0.00199961583317185 -0.0108969197221789 0.0440859689395285
v 0.00234573999764606 -0.0108867201755929 0.0431791486625563
v 0.00299924575539129 -0.010897209400746 0.044644769624365
v 0.000826939027899376 -0.0108914897391612 0.0470191802005653
v 0.00205129291002543 -0.0108696196033891 0.0458243979701907
v 0.00233876699942126 -0.0108849999855831 0.0469552792544228
v 0.00215488592934118 -0.00941842654157221 0.0445641793780585
v 0.00144845199327651 -0.00942921617412829 0.0465676106534687
v 0.00174111094159385 -0.00938856580730008 0.0455863370242788
v 0.00152629595563644 -0.00191247399346961 0.0440823974292934
v 0.00129771199902046 -0.00939077117910747 0.0437883081185451
f 3 2 1
f 1 2 4
f 2 5 4
f 2 6 5
f 6 2 7
f 10 9 8
f 9 11 8
f 14 13 12
f 13 15 12
f 18 17 16
f 17 20 19
f 23 22 21
f 24 22 23
f 14 22 24
f 22 25 21
f 20 8 14
f 20 14 24
f 17 26 20
f 20 26 8
f 26 27 8
f 17 28 26
f 18 28 17
f 28 29 26
f 32 31 30
f 31 20 30
f 33 20 31
f 33 19 20
f 36 35 34
f 37 35 36
f 36 33 31
f 36 34 33
f 40 39 38
f 39 41 37
f 37 41 35
f 41 18 16
f 39 40 18
f 41 39 18
f 44 43 42
f 46 45 43
f 43 45 47
f 47 29 28
f 43 28 42
f 47 28 43
f 45 46 48
f 46 49 48
f 40 42 18
f 42 28 18
f 51 23 50
f 51 24 23
f 52 21 25
f 53 21 52
f 55 11 54
f 56 55 42
f 40 56 42
f 40 38 56
f 42 55 44
f 56 32 30
f 58 51 57
f 51 50 57
f 50 53 57
f 57 53 52
f 30 51 58
f 30 58 11
f 56 30 55
f 30 11 55
f 55 59 44
f 44 59 60
f 44 60 43
f 60 62 61
f 59 63 60
f 60 63 62
f 43 61 46
f 60 61 43
f 59 55 63
f 55 54 63
f 38 39 64
f 56 38 65
f 38 64 65
f 64 31 65
f 64 36 31
f 56 65 32
f 65 31 32
f 64 37 36
f 39 37 64
f 66 26 29
f 47 67 29
f 67 66 29
f 67 68 66
f 67 69 68
f 67 70 69
f 66 68 27
f 26 66 27
f 47 45 70
f 67 47 70
f 71 41 16
f 73 71 72
f 71 16 72
f 72 16 17
f 73 34 71
f 73 33 34
f 72 33 73
f 71 34 35
f 41 71 35
f 17 19 72
f 72 19 33
f 30 24 51
f 30 20 24
f 11 14 8
f 13 14 11
f 25 75 74
f 25 74 52
f 23 21 53
f 23 53 50
f 76 27 68
f 69 76 68
f 69 48 76
f 70 48 69
f 48 70 45
f 8 27 10
f 22 12 75
f 22 14 12
f 22 75 25
f 61 49 46
f 62 49 61
f 62 77 49
f 63 77 62
f 63 54 77
f 9 54 11
f 11 58 13
f 13 58 15
f 74 15 57
f 15 58 57
f 57 52 74
f 48 78 76
f 78 27 76
f 81 80 79
f 81 82 80
f 80 83 79
f 79 83 84
f 87 86 85
f 85 86 88
f 88 86 89
f 89 84 83
f 86 84 89
f 90 88 89
f 88 91 85
f 85 91 92
f 94 6 93
f 92 6 94
f 92 5 6
f 6 7 95
f 91 5 92
f 7 96 95
f 7 97 96
f 91 4 5
f 91 1 4
f 97 98 96
f 99 1 91
f 99 100 1
f 98 101 96
f 1 100 3
f 3 103 102
f 102 103 104
f 100 103 3
f 104 103 101
f 101 103 96
f 103 105 96
f 96 105 106
f 106 105 107
f 107 105 108
f 107 74 75
f 107 108 74
f 74 108 15
f 75 12 107
f 109 82 81
f 109 110 82
f 111 77 54
f 49 77 111
f 82 110 15
f 112 82 15
f 110 111 9
f 15 110 9
f 81 12 109
f 113 12 81
f 109 10 78
f 12 10 109
f 81 114 113
f 116 115 113
f 117 95 115
f 116 117 115
f 120 119 118
f 118 119 100
f 82 112 121
f 120 112 119
f 10 12 9
f 9 12 15
f 110 49 111
f 49 109 48
f 110 109 49
f 109 78 48
f 87 85 92
f 87 92 94
f 87 94 93
f 117 87 93
f 117 93 95
f 122 118 100
f 122 100 99
f 90 122 99
f 90 99 91
f 88 90 91
f 119 105 103
f 112 108 105
f 119 103 100
f 112 15 108
f 115 95 96
f 111 54 9
f 115 96 106
f 113 106 107
f 121 80 82
f 107 12 113
f 120 83 121
f 121 83 80
f 27 78 10
f 118 89 83
f 120 118 83
f 89 118 122
f 90 89 122
f 86 87 117
f 116 84 86
f 117 116 86
f 114 81 79
f 116 114 84
f 114 79 84
f 102 2 3
f 2 102 104
f 7 2 97
f 2 98 97
f 2 101 98
f 2 104 101
f 125 124 123
f 126 124 125
f 129 128 127
f 129 130 128
f 126 131 124
f 132 130 129
f 134 133 126
f 126 133 131
f 132 135 130
f 132 136 135
f 125 136 132
f 125 123 136
f 135 137 130
f 135 138 137
f 141 140 139
f 136 138 135
f 143 142 141
f 141 142 140
f 136 123 138
f 128 142 143
f 128 144 142
f 130 144 128
f 130 137 144
f 146 142 145
f 147 142 146
f 145 142 144
f 140 142 147
f 123 137 138
f 123 144 137
f 124 144 123
f 145 144 124
f 149 147 148
f 148 147 146
f 139 147 149
f 139 140 147
f 131 145 124
f 133 145 131
f 133 146 145
f 148 146 133
f 150 141 139
f 150 143 141
f 151 148 134
f 134 148 133
f 127 143 150
f 127 128 143
f 151 149 148
f 152 149 151
f 152 139 149
f 150 139 152
f 129 127 150
f 132 129 150
f 125 132 150
f 125 150 151
f 126 125 151
f 150 152 151
f 134 126 151
f 155 154 153
f 158 157 156
f 158 159 157
f 155 160 154
f 161 159 158
f 163 162 155
f 155 162 160
f 161 164 159
f 161 165 164
f 153 165 161
f 153 154 165
f 164 166 159
f 169 168 167
f 170 168 169
f 165 166 164
f 170 171 168
f 157 172 171
f 159 172 157
f 159 166 172
f 167 168 173
f 173 168 172
f 168 171 172
f 174 166 154
f 175 166 174
f 173 172 175
f 175 172 166
f 154 166 165
f 176 173 175
f 177 173 176
f 177 167 173
f 169 167 177
f 160 174 154
f 162 174 160
f 162 175 174
f 176 175 162
f 178 170 169
f 178 171 170
f 179 176 163
f 163 176 162
f 156 171 178
f 156 157 171
f 179 177 176
f 180 177 179
f 180 169 177
f 178 169 180
f 153 161 155
f 158 156 179
f 156 178 179
f 178 180 179
f 163 158 179
f 161 158 163
f 155 161 163
f 93 6 95
f 114 116 113
f 115 106 113
f 119 112 105
f 121 112 120
f 183 182 181
f 183 184 182
f 183 185 184
f 186 185 183
f 181 182 187
f 190 189 188
f 190 191 189
f 194 193 192
f 195 191 190
f 196 193 194
f 196 197 193
f 188 197 196
f 188 189 197
f 200 199 198
f 201 200 198
f 204 203 202
f 203 205 202
f 201 198 206
f 207 201 206
f 207 206 208
f 209 207 208
f 204 202 199
f 200 204 199
f 212 211 210
f 211 213 210
f 210 213 214
f 210 214 215
f 218 217 216
f 219 216 217
f 222 221 220
f 223 222 220
f 224 223 220
f 225 224 220
f 228 227 226
f 229 226 227
f 215 214 230
f 214 231 230
f 230 231 232
f 230 232 216
f 216 232 218
f 224 225 233
f 224 233 234
f 233 226 235
f 226 229 235
f 234 233 235
f 212 210 236
f 210 237 236
f 219 238 237
f 217 238 219
f 236 220 221
f 237 220 236
f 228 237 238
f 227 228 238
f 229 227 235
f 235 227 238
f 238 217 232
f 217 218 232
f 235 238 232
f 240 239 236
f 222 240 221
f 239 212 236
f 242 241 198
f 241 206 198
f 244 243 231
f 205 246 245
f 248 247 240
f 250 232 249
f 247 251 240
f 249 232 243
f 243 232 231
f 250 235 232
f 252 235 250
f 254 235 253
f 234 235 254
f 234 247 248
f 246 255 245
f 258 257 256
f 234 259 247
f 251 260 240
f 257 231 256
f 206 241 208
f 246 261 255
f 241 262 208
f 263 261 246
f 260 264 240
f 234 254 259
f 263 265 261
f 262 266 208
f 208 268 267
f 266 268 208
f 263 269 265
f 264 239 240
f 260 270 264
f 254 271 259
f 267 269 263
f 273 202 272
f 268 269 267
f 235 252 253
f 265 244 261
f 273 199 202
f 257 244 231
f 272 202 270
f 271 199 273
f 264 258 239
f 202 205 270
f 262 250 266
f 270 274 264
f 252 250 262
f 254 242 271
f 242 199 271
f 270 205 274
f 265 243 244
f 242 198 199
f 239 258 256
f 274 205 245
f 256 231 213
f 214 213 231
f 256 211 239
f 213 211 256
f 248 240 222
f 222 223 248
f 234 248 223
f 224 234 223
f 276 275 243
f 243 275 249
f 277 276 265
f 265 276 243
f 268 266 278
f 268 278 279
f 269 268 279
f 269 279 277
f 265 269 277
f 278 266 280
f 266 250 280
f 280 249 275
f 250 249 280
f 278 280 279
f 279 280 275
f 277 279 276
f 279 275 276
f 253 252 281
f 281 252 282
f 283 282 262
f 262 282 252
f 241 242 284
f 242 285 284
f 262 241 283
f 241 284 283
f 254 286 242
f 286 285 242
f 286 254 281
f 254 253 281
f 281 282 284
f 286 281 284
f 284 282 283
f 286 284 285
f 288 247 287
f 288 251 247
f 287 247 289
f 247 259 289
f 259 271 289
f 289 271 290
f 272 270 291
f 272 291 292
f 273 272 292
f 273 292 290
f 271 273 290
f 260 293 270
f 293 291 270
f 288 293 251
f 251 293 260
f 287 289 290
f 287 290 292
f 287 292 288
f 292 291 288
f 288 291 293
f 295 257 294
f 294 258 296
f 294 257 258
f 264 297 258
f 297 296 258
f 264 274 297
f 297 274 298
f 255 261 299
f 255 299 300
f 245 255 300
f 245 300 298
f 274 245 298
f 299 261 301
f 261 244 301
f 295 301 257
f 257 301 244
f 298 300 296
f 297 298 296
f 300 299 295
f 299 301 295
f 300 295 294
f 296 300 294
f 197 201 193
f 200 201 197
f 201 207 193
f 200 197 189
f 207 209 193
f 193 209 302
f 204 200 189
f 302 209 303
f 303 209 304
f 204 189 191
f 303 304 305
f 191 306 203
f 204 191 203
f 307 303 305
f 307 305 308
f 306 307 203
f 203 307 308
f 305 263 246
f 308 305 246
f 209 208 267
f 308 246 205
f 304 209 267
f 203 308 205
f 305 304 267
f 305 267 263
f 192 303 309
f 195 306 191
f 192 302 303
f 310 306 195
f 192 193 302
f 310 307 306
f 309 307 310
f 309 303 307
f 312 311 186
f 312 313 311
f 312 187 313
f 181 187 312
f 186 311 185
f 188 196 182
f 192 309 313
f 194 192 187
f 190 184 195
f 185 311 310
f 190 182 184
f 188 182 190
f 184 185 195
f 196 194 182
f 194 187 182
f 311 309 310
f 185 310 195
f 313 309 311
f 187 192 313
f 181 312 186
f 183 181 186
f 228 233 237
f 226 233 228
f 233 225 220
f 237 233 220
f 215 230 210
f 237 210 230
f 219 237 230
f 216 219 230
f 221 240 236
f 211 212 239
