# Generated by SimLab OpenUSD importer
v -0.000860487967729569 0.00191301092505455 0.0435649728775024
v -0.00174039602279663 0.00938856601715088 0.0444136190414429
v -0.00152557998895645 0.00191253393888474 0.0459175109863281
v -0.00129699692130089 0.00939077138900757 0.0462116003036499
v 0.000156458001583815 0.00938838720321656 0.0467658615112305
v 0.000861215963959694 0.00191312998533249 0.0464349889755249
v -0.000155725004151464 0.00938838720321656 0.0432340526580811
v -0.00208645984530449 0.00943106412887574 0.0452687120437622
v -0.00215315788984299 0.0108865392208099 0.0454203987121582
v -0.00146478399634361 0.0094292163848877 0.0465516996383667
v -0.0010701409727335 0.0108835601806641 0.0469809675216675
v 0.000721601992845535 0.00943356633186341 0.042989673614502
v -0.000723477974534035 0.0108947694301605 0.0428775501251221
v -0.000697705000638962 0.00943159937858582 0.0430164289474487
v -1.12074008211494e-05 0.00943017005920411 0.0471171092987061
v -0.0018193119764328 0.00943756103515625 0.0438790273666382
v -0.00196719095110893 0.0108896994590759 0.0440769100189209
v -0.00288659304380417 0.00943517565727234 0.043994722366333
v -0.00297522485256195 0.00943678617477417 0.0457030487060547
v -0.00300937801599503 0.0108941698074341 0.0452787208557129
v -0.00245523408055306 0.0108961999416351 0.0432685613632202
v -0.00179171502590179 0.00943350672721863 0.0475511503219605
v 0.00035971499979496 0.0108996605873108 0.0479683208465576
v -0.00187092989683151 0.0109066903591156 0.0474112606048584
v 0.00052097998559475 0.00943428158760071 0.048030366897583
v -0.00178468197584152 0.00943410277366639 0.0424965000152588
v -0.000970155000686646 0.0108850002288818 0.0421676588058472
v 1.48398999590427e-05 0.00943773865699768 0.0419424676895142
v 0.00102555707097054 0.0108947694301605 0.0421499633789063
v 0.00226306885480881 -8.3764297887683e-05 0.047262659072876
v 0.00484311491250992 -1.70611997600645e-05 0.053717188835144
v 0.0022689700126648 -3.64763988181949e-05 0.0537461614608765
v 0.00707507073879242 -1.88820995390415e-05 0.0527692413330078
v 0.00867491841316223 -6.99964002706111e-06 0.0503185319900513
v 0.00875699520111084 -2.97773000784218e-05 0.0472717809677124
v 0.00875890135765076 -2.87571991793811e-05 0.0427279376983643
v 0.00227022096514702 -3.43831023201347e-05 0.0362487983703613
v 0.00876259803771973 1.08414993155748e-05 0.0362658500671387
v 0.0022482268512249 -7.64218997210264e-05 0.0427520799636841
v -0.00226229399442673 -8.3764297887683e-05 0.047262659072876
v -0.00226825401186943 -3.6476100794971e-05 0.0537461614608765
v -0.00569194495677948 1.10341003164649e-05 0.0536039400100708
v -0.00781816244125366 -3.97311011329293e-05 0.0519177913665771
v -0.0087093710899353 -1.03084999136627e-05 0.0499394512176514
v -0.00875771045684815 -2.89759994484484e-05 0.047271900177002
v -0.0087587833404541 -3.04483994841576e-05 0.0427238893508911
v -0.00227373793721199 -3.68373980745673e-05 0.0362495708465576
v -0.00224399492144585 -7.46945012360812e-05 0.0427555990219116
v -0.00877195477485657 2.75425985455513e-05 0.0362644076347351
v 0.00880932807922363 0.00156462103128433 0.0449999475479126
v 0.00878596305847168 0.00934815406799317 0.0505711984634399
v 0.00893133759498596 0.00931364178657532 0.0360903692245483
v -0.00880402326583862 0.0015588989853859 0.0449999475479126
v -0.00889307141304016 0.00934207439422608 0.0498996305465698
v -0.00893068313598633 0.0093144166469574 0.0360903692245483
v 3.65234009223059e-07 0.0015588989853859 0.053804030418396
v 3.65209998562932e-07 0.00148862600326538 0.0449999475479126
v 3.6561399610946e-07 0.00156116411089897 0.0361964106559753
v 0.004730044901371 0.00935137152671814 0.0538998794555664
v -0.00533980071544647 0.00935518741607666 0.0538194704055786
v -0.00270712316036224 0.0093836784362793 0.0419390201568604
v -0.00394457489252091 0.00940042734146119 0.0442537593841553
v 0.00749272108078003 0.00939500331878662 0.0442505979537964
v 0.00749748885631561 0.0093948233127594 0.0457537078857422
v 0.00218564197421074 0.00939082980155945 0.048375301361084
v 0.00254624992609024 0.00943660736083985 0.0467984580993652
v -0.00725847363471985 0.0093877911567688 0.0506891632080078
v -0.00786077857017517 0.00935530543327332 0.0521914291381836
v 0.00749838292598724 0.009393869638443 0.0375068712234497
v 0.000754131972789765 0.00939506173133851 0.0375025796890259
v -0.00497215896844864 0.00939273834228516 0.0524379014968872
v -0.000755759030580521 0.00939440727233887 0.0375016283988953
v -0.00749248206615448 0.009393869638443 0.0375017476081848
v -0.00749653458595276 0.0093948233127594 0.0442468500137329
v 0.00344526708126068 0.00938671827316285 0.0470567893981934
v 0.00686865985393524 0.00935214638710022 0.0531028509140015
v 0.0073652857542038 0.00939369201660157 0.0503267621994019
v 0.00534444987773895 0.00938582420349121 0.0523556995391846
v -0.0074918270111084 0.0093948233127594 0.0457493591308594
v -0.000753553956747055 0.00939470529556275 0.0524972581863403
v 0.00392353475093842 0.00938993573188782 0.0457335710525513
v -0.000730475038290024 0.00939190268516541 0.0410801076889038
v 0.00303840577602387 0.00943362712860108 0.0446528100967407
v 0.000749808996915817 0.00939506173133851 0.0524923801422119
v 0.00392335593700409 0.00939035415649414 0.0442665815353394
v 0.000734001994132996 0.00938993573188782 0.0410767698287964
v 0.00207763910293579 0.00943434238433838 0.0426754903793335
v 0.00205707505345345 0.00938671827316285 0.0415549802780151
v 0.00337564885616303 0.00939082980155945 0.0428146696090698
v -0.000733048990368843 0.00939035415649414 0.0489230060577393
v -0.00392264068126679 0.00939035415649414 0.0457333898544312
v -0.00205635994672775 0.00938671827316285 0.0484449195861816
v -0.00337487399578095 0.00939082980155945 0.0471853017807007
v 0.000734001994132996 0.00938993573188782 0.048923192024231
v 0.00733321905136109 0.00144219309091568 0.0376727509498596
v 0.00733107268810272 0.00144165694713593 0.0440803098678589
v 0.00411546170711517 0.00143361002206802 0.0440410280227661
v 0.000913617014884949 0.00144046500325203 0.0409246015548706
v 0.00267535388469696 0.0014278881251812 0.0417134094238281
v 0.000916391983628273 0.00144249200820923 0.0376725721359253
v -0.00733286082744599 0.00144308805465698 0.0376718592643738
v -0.000916097983717919 0.00144219309091568 0.0376727509498596
v -0.000909494012594223 0.00144207403063774 0.0409266901016235
v -0.00304520100355148 0.00141972303390503 0.0419565391540527
v -0.00407320201396942 0.00144213408231735 0.0440898513793945
v -0.00733196675777435 0.00144272997975349 0.0440797805786133
v -0.0071405166387558 0.00143116697669029 0.050442271232605
v -0.00509041488170624 0.00143229901790619 0.0522284507751465
v -0.00733220458030701 0.00144350498914719 0.0459198331832886
v -0.00411480605602265 0.00143343195319176 0.0459590530395508
v -0.000913102999329567 0.00144010707736015 0.0490754795074463
v -0.00267529398202896 0.00142651706933975 0.0482869100570679
v -0.000916344001889229 0.00144302800297737 0.0523282194137573
v 0.00660824656486511 0.00141262993216515 0.0511690902709961
v 0.00730997264385224 0.00143551796674728 0.0495813989639282
v 0.00492483288049698 0.00143730610609055 0.0522634887695312
v 0.000915561988949776 0.00144356399774551 0.0523269701004028
v 0.000959386005997658 0.00143349096179009 0.0491151237487793
v 0.00407588392496109 0.00144010707736015 0.0459134483337402
v 0.0032873147726059 0.00142651706933975 0.0476756620407104
v 0.00733232378959656 0.00144284904003143 0.0459200716018677
v 0.000984775051474571 0.0108881497383118 0.0430663204193115
v 0.00199961587786675 0.010896919965744 0.0440859699249268
v 0.00234574005007744 0.0108867204189301 0.0431791496276855
v 0.00299924582242966 0.0108972096443176 0.0446447706222534
v 0.000826939046382904 0.010891489982605 0.0470191812515259
v 0.0020512929558754 0.010869619846344 0.0458243989944458
v 0.00233876705169678 0.0108850002288818 0.0469552803039551
v 0.00215488597750664 0.00941842675209046 0.0445641803741455
v 0.00144845202565193 0.0094292163848877 0.0465676116943359
v 0.00174111098051071 0.00938856601715088 0.0455863380432129
v 0.00152629598975182 0.00191247403621674 0.0440823984146118
v 0.00129771202802658 0.00939077138900757 0.04378830909729
v 0.00235420390963554 0.00942009568214417 0.0475357675552368
v -2.00269001652487e-06 0.0128052198886871 0.044993748664856
v 0.00336742401123047 0.00942015528678894 0.0457962131500244
v 0.00120961599051952 0.00942182540893555 0.0482046604156494
v -0.000900074020028115 0.00942343354225159 0.0483672571182251
v -0.00256878077983856 0.0094141960144043 0.0472955703735352
v -0.00346106201410294 0.00942599654197693 0.0454550886154175
v -0.0104053592681885 0.0183872509002686 0.0039641261100769
v 0.01030277967453 0.0196752488613129 0.00399994790554047
v -0.0103067696094513 0.01970409989357 0.00399994790554047
v 0.0104016005992889 0.0182121896743774 0.00399756371974945
v -0.0103283500671387 0.0174108707904816 0.00631153464317322
v 0.0102062797546387 0.0174418592453003 0.00510972678661346
v -0.0104023194313049 0.0174140298366547 0.00476950407028198
v 0.0103377103805542 0.0174105095863342 0.00634837090969086
v -0.0103496301174164 0.00256317794322968 0.00179994091391563
v -0.0104643094539642 0.00807201743125916 0.00174116998910904
v -0.0103662598133087 0.00252431601285935 0.000133331995457411
v -0.0103380596637726 0.0080285656452179 0.00383841902017593
v -0.0103538250923157 0.0104629898071289 0.00391176283359528
v -0.0103790700435638 0.0127922201156616 0.0188520491123199
v -0.0105009007453918 0.0170356595516205 0.0177143788337708
v -0.0103749597072601 0.0115768897533417 0.017772730588913
v -0.0104031503200531 0.0114449799060822 0.00479894787073135
v -0.0103331804275513 0.0162147808074951 0.0188274908065796
v -0.0104643094539642 0.0207543301582336 0.00174116998910904
v -0.0102562296390533 0.0207977795600891 0.00392025709152222
v -0.0103905200958252 0.0263041210174561 0.00016363300383091
v -0.0103496301174164 0.0262631702423096 0.00179994091391563
v 0.010355349779129 0.0104675555229187 0.00390830546617508
v 0.00678396165370941 0.00787025570869446 0.00392210394144058
v 0.0103387796878815 0.0080285656452179 0.00383841902017593
v -0.00668823719024658 0.00782579064369202 0.00391292482614517
v -0.00503319501876831 0.00596505403518677 0.00387495696544647
v -0.004874587059021 0.00258821189403534 0.00387495696544647
v 0.00500184237957001 0.00613823413848877 0.00384604871273041
v 0.00487536102533341 0.00253820389509201 0.00382494896650314
v 0.0103503406047821 0.00256317794322968 0.00179994091391563
v 0.00486189067363739 0.00248241394758225 0.00176149591803551
v 0.0103782999515533 0.00253522306680679 0.000152541995048523
v -0.00486111581325531 0.00248241394758225 0.00176149591803551
v 0.0103892004489899 0.0262798595428467 0.000133333001285791
v 0.00490075290203095 0.026345489025116 0.0017606009542942
v 0.0103503406047821 0.0262631702423096 0.00179999992251396
v -0.00483804881572724 0.0262978005409241 0.00383841902017593
v 0.00483882367610932 0.0262516689300537 0.00388461291790009
v -0.00491309106349945 0.0263150882720947 0.00177884101867676
v -0.00474035680294037 0.0230867195129395 0.00399154365062714
v 0.00473672091960907 0.0231127095222473 0.00398993402719498
v 0.010409049987793 0.0116169393062592 0.0177185499668121
v 0.010397789478302 0.0114065992832184 0.00475180089473724
v 0.0103278696537018 0.0160561800003052 0.0188734495639801
v 0.0103827095031738 0.0126119196414948 0.0187998986244202
v 0.0102684998512268 0.0207631492614746 0.0039317598938942
v 0.0104585194587708 0.0208025503158569 0.00174504488706589
v 0.01046501994133 0.00807201743125916 0.00174116998910904
v 0.0105015599727631 0.0170357203483582 0.0177144408226013
v 0.010498640537262 0.01723228931427 0.00473028421401978
v 0.00707286477088928 0.0210059189796448 0.00189995691180229
v 0.0052065247297287 0.0225413990020752 0.00189995691180229
v 0.0050306910276413 0.0233486199378967 0.00370061308145523
v 0.00555646419525147 0.0221340608596802 0.00370019614696503
v 0.00697416007518768 0.0210205292701721 0.00369894504547119
v 0.00515145003795624 0.00613880097866059 0.00189995691180229
v 0.00699281573295593 0.00781291723251343 0.00189995691180229
v -0.00710451602935791 0.0209913802146912 0.00189995691180229
v -0.00520581007003784 0.0225413990020752 0.00189995691180229
v -0.00696331202983856 0.0210297703742981 0.00368881195783615
v -0.00555568873882294 0.0221340608596802 0.00370019614696503
v -0.00503146588802338 0.023340220451355 0.00370299786329269
v -0.00505119502544403 0.00564485669136048 0.00189995691180229
v -0.00715523898601532 0.00784361243247986 0.00189995691180229
v -0.00577795505523682 0.00696319282054901 0.00189995691180229
v 0.0101981699466705 0.0173339807987213 0.0177704000473022
v -0.0101935803890228 0.017350310087204 0.0176808798313141
v -0.00656622588634491 0.0208187103271484 0.00399744510650635
v 0.0066025847196579 0.0207953405380249 0.00399714708328247
v -0.0102930009365082 0.0231655788421631 0.00400900781154633
v -0.00880229353904724 0.0156517601013184 0.0359255003929138
v 0.00880372524261475 0.0156677901744843 0.0359093499183655
v -0.0103888499736786 0.0252202701568604 0.0191876196861267
v 0.010400470495224 0.0252534103393555 0.0190365886688232
v 0.00874662280082703 0.0144116199016571 0.0360043001174927
v -0.00874871015548706 0.0144120395183563 0.0360045981407166
v -0.00533032417297363 0.0143017101287842 0.0538100004196167
v -0.00865679860115052 0.0144132900238037 0.0498322820663452
v -0.00780171096324921 0.0142384707927704 0.0522912120819092
v 0.00480043798685074 0.0143310403823853 0.0538315677642822
v 0.00853770852088928 0.0144140100479126 0.0505335903167725
v 0.00654661595821381 0.014290509223938 0.0532461404800415
v 0.00553220510482788 0.00941228747367859 0.0538575601577759
v -0.00546771168708801 0.00949096560478211 0.0537472295761108
v -0.00839465737342835 0.00950425744056702 0.0514611005783081
v -0.00708413064479828 0.00950425744056702 0.0528213882446289
v -0.00877934575080872 0.00946134328842163 0.0501179599761963
v -0.00874519228935242 0.0094139564037323 0.036004478931427
v -0.0030620688199997 0.00942635536193848 0.0434908771514893
v -0.00195377990603447 0.00941777229309082 0.0421556806564331
v 0.00773781478404999 0.00953346371650696 0.0522450828552246
v 0.00880241274833679 0.00950848937034607 0.0502025413513184
v 0.000144478995352984 0.00943315029144287 0.0415105199813843
v 0.00316786706447601 0.00942504405975342 0.0437722206115723
v 0.00874894738197327 0.00941377758979798 0.0360047173500061
v 0.00194334909319878 0.00942236065864563 0.0421935272216797
v 0.00896245241165161 0.00802069902420044 0.0355792593955994
v -0.00901520133018494 0.00804358720779419 0.035742039680481
v -0.0101925098896027 0.017399480342865 0.0192508101463318
v 0.0101882791519165 0.017392510175705 0.0192534303665161
v -0.0103617894649506 0.0253046703338623 0.00614440381526947
v 0.0103817498683929 0.0252618098258972 0.0061185348033905
v 0.0102937197685242 0.0231655788421631 0.00400900781154633
v 0.0104797399044037 0.017677960395813 0.0193241798877716
v -0.0104790902137756 0.0176780200004578 0.0193235802650452
v -0.00905543446540833 0.0154680001735687 0.0357080101966858
v -0.00904929637908936 0.0097116231918335 0.035734589099884
v -0.009055495262146 0.014104540348053 0.0357282090187073
v -0.00894540429115296 0.014109959602356 0.0499603128433228
v 0.00897312045097351 0.0141132998466492 0.0496811199188232
v 0.00904995203018189 0.00971585512161255 0.0357357788085938
v 0.00905627012252808 0.0141087698936462 0.0357270193099976
v 0.00905614972114563 0.0154680001735687 0.0357080101966858
v 0.0081971275806427 0.014114910364151 0.0518529415130615
v -0.00982320308685303 0.0175021195411682 0.0111079800128937
v -0.00897002220153809 0.0175354409217835 0.00949793934822083
v -0.00982862710952759 0.0204132103919983 0.0116144394874573
v -0.00838220119476319 0.0204131603240967 0.00897806763648987
v -0.0052449095249176 0.0204131603240967 0.0157164299488068
v -0.00541889607906342 0.0177191400527954 0.0157521295547485
v -0.00698703467845917 0.0204131603240967 0.0156416201591492
v -0.00758099496364594 0.0177130103111267 0.0154585194587708
v -0.00790250301361084 0.0177127695083618 0.00874233245849609
v -0.00893688201904297 0.0204132103919983 0.0144862496852875
v -0.00616574168205261 0.017719259262085 0.00820678353309631
v -0.0059996235370636 0.0204131603240967 0.00820779800415039
v -0.00901007533073426 0.0177126502990723 0.0142740595340729
v -0.00971245646476746 0.0177175903320313 0.0127433502674103
v -0.00816380858421326 0.0174136102199554 0.0154888606071472
v -0.00980520129203797 0.0174138510227203 0.0135763204097748
v -0.00216013103723526 0.0177142596244812 0.0117901504039764
v -0.00191706389188767 0.0174154007434845 0.0128797197341919
v -0.00276118487119675 0.0177128887176514 0.0139358603954315
v -0.00345307499170303 0.0174133706092835 0.0151981699466705
v -0.00375634402036667 0.0177131199836731 0.0150334799289703
v -0.00565910279750824 0.0174139106273651 0.0161122608184814
v -0.00744163870811463 0.0174135494232178 0.00815576314926147
v -0.00479966402053833 0.0174142694473267 0.00804436206817627
v -0.00253355503082275 0.0174140298366547 0.00976121425628662
v -0.0042408099770546 0.0177081203460693 0.00864684462547302
v -0.00298917204141617 0.0177126502990723 0.00972586750984192
v -0.00306236684322357 0.0204131603240967 0.0144862496852875
v -0.00361704796552658 0.0204131603240967 0.00897806763648987
v -0.00217056199908257 0.0204132103919983 0.0116144394874573
v 0.00217133685946465 0.0204132103919983 0.0116144394874573
v 0.00247198298573494 0.0175376498699188 0.0102740502357483
v 0.00361776292324066 0.0204131603240967 0.00897806763648987
v 0.0067550528049469 0.0204131603240967 0.0157164299488068
v 0.00658100783824921 0.0177191400527954 0.0157521295547485
v 0.00501292884349823 0.0204131603240967 0.0156416201591492
v 0.00441890895366669 0.0177130103111267 0.0154585194587708
v 0.00409746080636978 0.0177127695083618 0.00874233245849609
v 0.00306308209896088 0.0204131603240967 0.0144862496852875
v 0.00583422064781189 0.017719259262085 0.00820678353309631
v 0.0060003387928009 0.0204131603240967 0.00820779800415039
v 0.00298988789319992 0.0177126502990723 0.0142740595340729
v 0.00215810492634773 0.0176027393341065 0.0124818599224091
v 0.00277876794338226 0.0174147391319275 0.014643839597702
v 0.0099671483039856 0.0174139106273651 0.0108637201786041
v 0.00984442234039307 0.0174136102199554 0.0134419691562653
v 0.00983983159065247 0.0177142596244812 0.0117901504039764
v 0.00923871874809265 0.0177128887176514 0.0139358603954315
v 0.00836306810379028 0.0175936794281006 0.0150501704216003
v 0.00593393981456757 0.0174150395393372 0.016176038980484
v 0.00849610447883606 0.0174136698246002 0.00874000668525696
v 0.00416731774806976 0.0174148607254028 0.00827723741531372
v 0.00659871101379395 0.0174132490158081 0.00796615958213806
v 0.00775915265083313 0.0177081203460693 0.00864684462547302
v 0.00901079058647156 0.0177126502990723 0.00972586750984192
v 0.00893759727478028 0.0204131603240967 0.0144862496852875
v 0.00838291645050049 0.0204131603240967 0.00897806763648987
v 0.00982934236526489 0.0204132103919983 0.0116144394874573
f 1 2 3
f 2 4 3
f 4 5 3
f 3 5 6
f 7 2 1
f 8 9 10
f 9 11 10
f 12 13 14
f 10 11 15
f 14 13 16
f 13 17 16
f 16 17 8
f 17 9 8
f 18 19 20
f 18 20 21
f 22 23 24
f 22 25 23
f 26 18 21
f 26 21 27
f 28 26 27
f 28 27 29
f 19 22 24
f 19 24 20
f 30 31 32
f 30 33 31
f 34 33 30
f 35 34 30
f 36 37 38
f 37 36 39
f 40 41 42
f 40 42 43
f 40 43 44
f 40 44 45
f 46 47 48
f 47 46 49
f 50 34 35
f 50 51 34
f 52 51 50
f 36 52 50
f 38 52 36
f 53 45 44
f 54 53 44
f 55 46 53
f 55 49 46
f 55 53 54
f 56 30 32
f 56 57 30
f 57 58 39
f 39 58 37
f 41 40 56
f 56 40 57
f 58 57 48
f 58 48 47
f 55 47 49
f 58 47 55
f 52 37 58
f 52 38 37
f 52 58 55
f 56 59 60
f 41 60 42
f 56 32 59
f 18 61 62
f 18 26 61
f 51 63 64
f 65 66 25
f 60 67 68
f 69 52 70
f 60 71 67
f 63 52 69
f 51 52 63
f 52 55 70
f 70 55 72
f 73 55 74
f 74 55 54
f 68 67 54
f 65 75 66
f 76 77 78
f 67 79 54
f 60 80 71
f 76 51 77
f 28 61 26
f 75 81 66
f 28 82 61
f 66 81 83
f 60 84 80
f 79 74 54
f 81 85 83
f 28 86 82
f 87 88 28
f 28 88 86
f 85 89 83
f 60 59 84
f 84 90 80
f 79 91 74
f 83 89 87
f 92 22 93
f 87 89 88
f 73 72 55
f 81 64 85
f 22 19 93
f 51 64 77
f 90 22 92
f 93 19 91
f 59 78 84
f 90 25 22
f 86 70 82
f 84 94 90
f 82 70 72
f 91 62 74
f 91 19 62
f 94 25 90
f 64 63 85
f 19 18 62
f 76 78 59
f 65 25 94
f 33 51 76
f 51 33 34
f 59 31 76
f 76 31 33
f 42 60 68
f 68 43 42
f 43 68 54
f 43 54 44
f 63 95 96
f 69 95 63
f 85 96 97
f 63 96 85
f 98 86 88
f 99 98 88
f 99 88 89
f 97 99 89
f 97 89 85
f 100 86 98
f 100 70 86
f 95 69 100
f 100 69 70
f 99 100 98
f 95 100 99
f 96 99 97
f 96 95 99
f 101 72 73
f 102 72 101
f 82 102 103
f 72 102 82
f 104 62 61
f 104 105 62
f 103 61 82
f 103 104 61
f 62 106 74
f 62 105 106
f 101 74 106
f 101 73 74
f 104 102 101
f 104 101 106
f 103 102 104
f 105 104 106
f 107 67 108
f 67 71 108
f 109 67 107
f 109 79 67
f 109 91 79
f 110 91 109
f 111 90 92
f 112 111 92
f 112 92 93
f 110 112 93
f 110 93 91
f 90 113 80
f 90 111 113
f 71 113 108
f 80 113 71
f 110 109 107
f 112 110 107
f 108 112 107
f 108 111 112
f 113 111 108
f 114 77 115
f 116 78 114
f 78 77 114
f 78 117 84
f 78 116 117
f 117 94 84
f 118 94 117
f 119 81 75
f 120 119 75
f 120 75 65
f 118 120 65
f 118 65 94
f 121 81 119
f 121 64 81
f 77 121 115
f 64 121 77
f 116 120 118
f 116 118 117
f 115 119 120
f 115 121 119
f 114 115 120
f 114 120 116
f 13 21 17
f 17 21 20
f 13 27 21
f 9 17 20
f 13 29 27
f 122 29 13
f 9 20 24
f 123 29 122
f 124 29 123
f 11 9 24
f 125 124 123
f 23 126 11
f 23 11 24
f 125 123 127
f 128 125 127
f 23 127 126
f 128 127 23
f 66 83 125
f 66 125 128
f 87 28 29
f 25 66 128
f 87 29 124
f 25 128 23
f 87 124 125
f 83 87 125
f 129 123 12
f 11 126 15
f 123 122 12
f 15 126 130
f 122 13 12
f 126 127 130
f 130 127 129
f 127 123 129
f 6 131 132
f 131 133 132
f 133 7 132
f 132 7 1
f 5 131 6
f 2 16 8
f 133 129 12
f 7 12 14
f 15 4 10
f 130 131 5
f 4 2 10
f 10 2 8
f 15 5 4
f 2 14 16
f 2 7 14
f 130 129 131
f 15 130 5
f 131 129 133
f 133 12 7
f 6 132 1
f 6 1 3
f 57 53 48
f 48 53 46
f 40 45 53
f 40 53 57
f 30 50 35
f 50 30 57
f 50 57 39
f 50 39 36
f 56 60 41
f 59 32 31
f 134 135 136
f 137 135 134
f 137 138 135
f 138 139 135
f 140 135 139
f 141 142 143
f 141 144 142
f 145 146 147
f 145 148 146
f 149 150 151
f 152 153 150
f 154 155 156
f 156 155 157
f 157 155 147
f 154 158 155
f 147 141 153
f 157 147 153
f 153 159 150
f 141 159 153
f 141 160 159
f 159 161 150
f 150 161 151
f 159 162 161
f 163 164 165
f 163 153 164
f 164 153 166
f 153 152 166
f 167 168 169
f 169 168 170
f 164 166 169
f 166 167 169
f 171 172 173
f 170 174 172
f 168 174 170
f 149 151 174
f 151 173 172
f 151 172 174
f 175 176 177
f 176 178 179
f 180 178 176
f 161 162 180
f 175 161 176
f 176 161 180
f 181 179 178
f 181 182 179
f 151 175 173
f 151 161 175
f 183 156 184
f 156 157 184
f 158 154 185
f 185 154 186
f 187 144 188
f 175 188 189
f 175 189 173
f 189 171 173
f 177 188 175
f 163 165 189
f 190 184 191
f 190 183 184
f 190 186 183
f 185 186 190
f 191 184 163
f 144 191 163
f 188 163 189
f 188 144 163
f 177 192 188
f 193 192 177
f 176 193 177
f 194 195 193
f 193 196 192
f 195 196 193
f 179 194 176
f 176 194 193
f 196 188 192
f 196 187 188
f 197 172 171
f 198 171 189
f 198 197 171
f 198 164 197
f 164 169 197
f 165 198 189
f 165 164 198
f 169 170 197
f 197 170 172
f 162 159 199
f 162 200 180
f 162 199 200
f 199 201 200
f 201 202 200
f 202 203 200
f 160 201 199
f 160 199 159
f 203 178 180
f 203 180 200
f 149 174 204
f 205 204 206
f 205 149 204
f 150 149 205
f 204 167 206
f 167 166 206
f 206 166 205
f 168 167 204
f 168 204 174
f 205 152 150
f 166 152 205
f 184 157 163
f 157 153 163
f 141 147 144
f 144 147 146
f 207 208 158
f 185 207 158
f 186 154 156
f 183 186 156
f 201 160 209
f 201 209 202
f 209 181 202
f 202 181 203
f 178 203 181
f 143 160 141
f 208 145 155
f 145 147 155
f 158 208 155
f 179 182 194
f 194 182 195
f 182 210 195
f 195 210 196
f 210 187 196
f 144 187 142
f 146 191 144
f 148 191 146
f 190 148 207
f 190 191 148
f 207 185 190
f 209 211 181
f 209 160 211
f 212 213 214
f 213 215 214
f 212 216 213
f 217 216 212
f 218 219 220
f 221 219 218
f 222 219 221
f 216 217 222
f 222 217 219
f 222 221 223
f 218 224 221
f 225 224 218
f 226 139 227
f 227 139 225
f 139 138 225
f 228 140 139
f 225 138 224
f 228 229 140
f 229 230 140
f 138 137 224
f 137 134 224
f 229 231 230
f 224 134 232
f 134 233 232
f 229 234 231
f 136 233 134
f 235 236 136
f 237 236 235
f 136 236 233
f 234 236 237
f 229 236 234
f 229 238 236
f 239 238 229
f 240 238 239
f 241 238 240
f 208 207 240
f 207 241 240
f 148 241 207
f 240 145 208
f 214 215 242
f 215 243 242
f 187 210 244
f 244 210 182
f 148 243 215
f 148 215 245
f 142 244 243
f 142 243 148
f 242 145 214
f 214 145 246
f 211 143 242
f 242 143 145
f 246 247 214
f 246 248 249
f 248 228 250
f 248 250 249
f 251 252 253
f 233 252 251
f 254 245 215
f 252 245 253
f 142 145 143
f 148 145 142
f 244 182 243
f 181 242 182
f 182 242 243
f 181 211 242
f 225 218 220
f 227 225 220
f 226 227 220
f 226 220 250
f 228 226 250
f 233 251 255
f 232 233 255
f 232 255 223
f 224 232 223
f 224 223 221
f 236 238 252
f 238 241 245
f 233 236 252
f 241 148 245
f 229 228 248
f 142 187 244
f 239 229 248
f 240 239 246
f 215 213 254
f 246 145 240
f 254 216 253
f 213 216 254
f 143 211 160
f 216 222 251
f 216 251 253
f 255 251 222
f 255 222 223
f 250 220 219
f 219 217 249
f 219 249 250
f 212 214 247
f 217 247 249
f 217 212 247
f 136 135 235
f 237 235 135
f 230 135 140
f 230 231 135
f 231 234 135
f 234 237 135
f 256 257 258
f 258 257 259
f 260 261 262
f 261 263 262
f 257 264 259
f 262 263 265
f 259 266 267
f 264 266 259
f 263 268 265
f 268 269 265
f 265 269 258
f 269 256 258
f 263 270 268
f 270 271 268
f 272 273 274
f 268 271 269
f 274 275 276
f 273 275 274
f 271 256 269
f 276 275 261
f 275 277 261
f 261 277 263
f 277 270 263
f 278 275 279
f 279 275 280
f 277 275 278
f 280 275 273
f 271 270 256
f 270 277 256
f 256 277 257
f 257 277 278
f 281 280 282
f 279 280 281
f 282 280 272
f 280 273 272
f 257 278 264
f 264 278 266
f 278 279 266
f 266 279 281
f 272 274 283
f 274 276 283
f 267 281 284
f 266 281 267
f 283 276 260
f 276 261 260
f 281 282 284
f 284 282 285
f 282 272 285
f 285 272 283
f 283 260 262
f 283 262 265
f 283 265 258
f 284 283 258
f 284 258 259
f 284 285 283
f 284 259 267
f 286 287 288
f 289 290 291
f 290 292 291
f 287 293 288
f 291 292 294
f 288 295 296
f 293 295 288
f 292 297 294
f 297 298 294
f 294 298 286
f 298 287 286
f 292 299 297
f 300 301 302
f 302 301 303
f 297 299 298
f 301 304 303
f 304 305 290
f 290 305 292
f 305 299 292
f 306 301 300
f 305 301 306
f 305 304 301
f 287 299 307
f 307 299 308
f 308 305 306
f 299 305 308
f 298 299 287
f 308 306 309
f 309 306 310
f 306 300 310
f 310 300 302
f 287 307 293
f 293 307 295
f 307 308 295
f 295 308 309
f 302 303 311
f 303 304 311
f 296 309 312
f 295 309 296
f 311 304 289
f 304 290 289
f 309 310 312
f 312 310 313
f 310 302 313
f 313 302 311
f 288 294 286
f 312 289 291
f 312 311 289
f 312 313 311
f 312 291 296
f 296 291 294
f 296 294 288
f 228 139 226
f 246 249 247
f 246 239 248
f 238 245 252
f 253 245 254
